<?xml version="1.0" encoding="utf-8"?>
<!-- Generator: Adobe Illustrator 27.5.0, SVG Export Plug-In . SVG Version: 6.00 Build 0)  -->
<svg version="1.1" id="Layer_1" xmlns="http://www.w3.org/2000/svg" xmlns:xlink="http://www.w3.org/1999/xlink" x="0px" y="0px"
	 viewBox="0 0 400 400" style="enable-background:new 0 0 400 400;" xml:space="preserve">
<style type="text/css">
	.st0{fill:#0EB1D2;}
	.st1{fill:#2B4141;}
	.st2{fill:#34E4EA;}
	.st3{fill:#8AB9B5;}
	.st4{fill:#C8C2AE;}
</style>
<path class="st0" d="M332.81,400H67.19C30.08,400,0,369.92,0,332.81V67.19C0,30.08,30.08,0,67.19,0h265.61
	C369.92,0,400,30.08,400,67.19v265.61C400,369.92,369.92,400,332.81,400z"/>
<path class="st1" d="M279.9,216.61c-5.13-9.21-12.59-16.72-22.38-22.55c7.46-5.36,13.05-12,16.78-19.93
	c3.73-7.92,5.59-16.78,5.59-26.57c0-13.75-3.38-25.7-10.14-35.84c-6.76-10.14-16.2-18.06-28.32-23.78
	c-8.18-3.85-17.28-6.37-27.27-7.63c0.29-4.16,0.57-8.32,0.86-12.48c0.46-6.76,0.93-13.4,1.4-19.93c-8.63,0-17.31,0-26.05,0
	c-8.74,0-17.43,0-26.05,0c-0.47,7.23-0.93,14.4-1.4,21.5c-0.22,3.3-0.43,6.65-0.65,9.97c-2.12,0-4.21,0-6.34,0
	c-14.57,0-29.08,0-43.53,0c0,39.16,0,78.79,0,118.88c0,40.1,0,79.72,0,118.88c11.36,0,22.8,0,34.3,0c-0.3,4.59-0.61,9.17-0.91,13.81
	c-0.47,7.11-0.93,14.16-1.4,21.15c8.62,0,17.31,0,26.05,0s17.42,0,26.05,0c0.46-7.46,0.93-14.86,1.4-22.2
	c0.27-4.29,0.54-8.52,0.82-12.76c1.3,0,2.61,0,3.91,0c17.01,0,31.87-2.91,44.58-8.74c12.7-5.82,22.61-13.99,29.72-24.48
	c7.11-10.49,10.66-22.73,10.66-36.71C287.59,236.01,285.02,225.82,279.9,216.61z M218.71,153.5c0,6.06-1.87,10.9-5.59,14.51
	c-3.73,3.62-8.63,5.42-14.69,5.42c-4.2,0-8.45,0-12.76,0c-4.32,0-8.57,0-12.76,0c0-6.76,0-13.58,0-20.45c0-6.87,0-13.58,0-20.11
	c4.2,0,8.45,0,12.76,0c4.31,0,8.57,0,12.76,0c6.06,0,10.95,1.92,14.69,5.77C216.84,142.48,218.71,147.44,218.71,153.5z
	 M219.93,257.69c-4.32,3.97-10.2,5.94-17.66,5.94c-4.89,0-9.79,0-14.69,0s-9.79,0-14.69,0c0-7.22,0-14.45,0-21.68
	c0-7.22,0-14.45,0-21.68c4.9,0,9.79,0,14.69,0s9.79,0,14.69,0c7.46,0,13.34,1.92,17.66,5.77c4.31,3.85,6.47,9.04,6.47,15.56
	C226.4,248.37,224.24,253.73,219.93,257.69z"/>
<g>
	<rect x="-285.88" y="-815.59" class="st1" width="111.35" height="100"/>
	<rect x="-285.88" y="-715.59" class="st0" width="111.35" height="100"/>
	<rect x="-285.88" y="-615.59" class="st2" width="111.35" height="100"/>
	<rect x="-285.88" y="-515.59" class="st3" width="111.35" height="100"/>
	<rect x="-285.88" y="-415.59" class="st4" width="111.35" height="100"/>
</g>
</svg>
